<?xml version="1.0" encoding="UTF-8"?>
<svg id="Layer_1" xmlns="http://www.w3.org/2000/svg" version="1.1" viewBox="0 0 800 800">
  <!-- Generator: Adobe Illustrator 29.8.1, SVG Export Plug-In . SVG Version: 2.1.1 Build 2)  -->
  <defs>
    <style>
      .st0 {
        fill: none;
      }

      .st1 {
        fill: #61abb9;
      }
    </style>
  </defs>
  <path class="st1" d="M327.5,138.04c17.81-17.81,41.46-27.66,66.63-27.76h2.91c25.17.11,48.83,9.96,66.63,27.76,16.28,16.28,26.08,37.8,27.58,60.63v36.49c37.27,12.39,71.89,32.04,102.11,58.25v-12.79l.03-82.54v-.37l-.03-.37c-1.89-49.6-22.32-96.32-57.5-131.48-36.97-36.97-86.12-57.45-138.39-57.66h-3.74c-52.3.21-101.44,20.69-138.42,57.66-35.16,35.16-55.58,81.88-57.5,131.48v209.99c22.2-40.04,62.93-79.02,102.11-93.25v-115.4c1.5-22.82,11.29-44.34,27.58-60.63Z"/>
  <path class="st1" d="M395.58,253.98c-148.08,0-268.12,120.04-268.12,268.12s120.04,268.12,268.12,268.12,268.12-120.04,268.12-268.12-120.04-268.12-268.12-268.12ZM395.58,749.97c-125.85,0-227.87-102.02-227.87-227.87s102.02-227.87,227.87-227.87,227.87,102.02,227.87,227.87-102.02,227.87-227.87,227.87Z"/>
  <path class="st0" d="M234.46,683.33c42.82,42.82,99.68,66.47,160.2,66.71.32.03.61.03.93.03.29,0,.61,0,.91-.03,60.52-.24,117.38-23.89,160.2-66.71,43.03-43.03,66.74-100.24,66.74-161.11s-23.71-118.07-66.74-161.11c-42.82-42.82-99.68-66.5-160.2-66.74h-1.84c-60.52.24-117.38,23.92-160.2,66.74-43.03,43.03-66.71,100.24-66.71,161.11s23.68,118.07,66.71,161.11ZM231.21,633.62c-19.03-28-31.1-61.11-33.72-96.8h111.61c.59,26.64,2.8,52.4,6.49,76.3-31.93,4.35-60.79,11.29-84.38,20.5ZM250.45,657.67c20.1-6.86,44.21-12.23,70.53-15.72,2.8,12.71,6.09,24.69,9.82,35.72,5.18,15.32,10.73,27.52,16.44,37.21-37.64-9.45-71.09-29.66-96.8-57.21ZM452.86,536.82c-.59,25.65-2.75,50.38-6.33,73.15-16.47-1.36-33.53-2.06-50.93-2.06s-34.46.69-50.96,2.06c-3.58-22.77-5.74-47.47-6.33-73.15h114.55ZM338.31,507.62c.59-25.68,2.75-50.37,6.33-73.15,16.47,1.36,33.53,2.06,50.96,2.06s34.38-.72,50.93-2.11c3.58,22.77,5.74,47.49,6.33,73.2h-114.55ZM432.7,668.33c-13.11,38.76-28.19,52.54-37.11,52.54s-24.03-13.77-37.13-52.54c-3.07-9.13-5.82-19.01-8.25-29.45,14.76-1.17,29.98-1.76,45.38-1.76s30.59.59,45.36,1.74c-2.4,10.46-5.15,20.34-8.25,29.47ZM443.91,714.88c5.71-9.69,11.29-21.89,16.47-37.21,3.71-11.03,6.99-23.01,9.82-35.75,26.32,3.52,50.43,8.89,70.5,15.75-25.71,27.55-59.13,47.76-96.8,57.21ZM559.96,633.62c-23.6-9.21-52.46-16.15-84.38-20.5,3.68-23.89,5.9-49.65,6.51-76.3h111.59c-2.59,35.69-14.68,68.8-33.72,96.8ZM559.96,410.79c19.03,28,31.13,61.13,33.72,96.82h-111.59c-.61-26.7-2.83-52.48-6.51-76.4,31.93-4.38,60.92-11.35,84.38-20.42ZM540.74,386.77c-20.1,6.89-44.15,12.25-70.53,15.75-2.83-12.73-6.11-24.72-9.82-35.77-5.18-15.3-10.76-27.52-16.47-37.21,37.67,9.45,71.09,29.69,96.82,57.23ZM358.46,376.12c13.11-38.79,28.19-52.54,37.13-52.54s24,13.75,37.11,52.54c3.1,9.13,5.85,19.01,8.25,29.47-14.71,1.12-29.93,1.74-45.36,1.74s-30.65-.61-45.38-1.76c2.43-10.44,5.18-20.31,8.25-29.45ZM347.25,329.53c-5.71,9.69-11.27,21.92-16.44,37.21-3.74,11.05-7.02,23.04-9.82,35.77-26.35-3.52-50.43-8.89-70.53-15.78,25.71-27.52,59.16-47.76,96.8-57.21ZM231.21,410.82c23.63,9.21,52.43,16.15,84.38,20.5-3.68,23.89-5.9,49.65-6.49,76.3h-111.61c2.62-35.69,14.68-68.79,33.72-96.8Z"/>
  <path class="st1" d="M482.09,507.62h111.59c-2.59-35.69-14.68-68.82-33.72-96.82-23.47,9.08-52.46,16.04-84.38,20.42,3.68,23.92,5.9,49.71,6.51,76.4Z"/>
  <path class="st1" d="M350.21,638.88c2.43,10.44,5.18,20.32,8.25,29.45,13.11,38.76,28.19,52.54,37.13,52.54s24-13.77,37.11-52.54c3.1-9.13,5.85-19.01,8.25-29.47-14.76-1.15-29.95-1.74-45.36-1.74s-30.62.59-45.38,1.76Z"/>
  <path class="st1" d="M460.39,677.67c-5.18,15.32-10.76,27.52-16.47,37.21,37.67-9.45,71.09-29.66,96.8-57.21-20.08-6.86-44.18-12.23-70.5-15.75-2.83,12.73-6.11,24.72-9.82,35.75Z"/>
  <path class="st1" d="M446.53,434.42c-16.55,1.39-33.64,2.11-50.93,2.11s-34.49-.69-50.96-2.06c-3.58,22.77-5.74,47.46-6.33,73.15h114.55c-.59-25.71-2.75-50.43-6.33-73.2Z"/>
  <path class="st1" d="M309.1,536.82h-111.61c2.62,35.69,14.68,68.8,33.72,96.8,23.6-9.21,52.46-16.15,84.38-20.5-3.68-23.89-5.9-49.65-6.49-76.3Z"/>
  <path class="st1" d="M320.98,641.95c-26.32,3.5-50.43,8.86-70.53,15.72,25.71,27.55,59.16,47.76,96.8,57.21-5.71-9.69-11.27-21.89-16.44-37.21-3.74-11.03-7.02-23.01-9.82-35.72Z"/>
  <path class="st1" d="M344.63,609.97c16.5-1.36,33.56-2.06,50.96-2.06s34.46.69,50.93,2.06c3.58-22.77,5.74-47.49,6.33-73.15h-114.55c.59,25.68,2.75,50.38,6.33,73.15Z"/>
  <path class="st1" d="M475.58,613.12c31.93,4.35,60.79,11.29,84.38,20.5,19.03-28,31.13-61.11,33.72-96.8h-111.59c-.61,26.64-2.83,52.4-6.51,76.3Z"/>
  <path class="st1" d="M315.59,431.32c-31.95-4.35-60.76-11.29-84.38-20.5-19.03,28-31.1,61.11-33.72,96.8h111.61c.59-26.64,2.8-52.4,6.49-76.3Z"/>
  <path class="st1" d="M330.81,366.75c5.18-15.3,10.73-27.52,16.44-37.21-37.64,9.45-71.09,29.69-96.8,57.21,20.1,6.89,44.18,12.25,70.53,15.78,2.8-12.73,6.09-24.72,9.82-35.77Z"/>
  <path class="st1" d="M440.95,405.59c-2.4-10.46-5.15-20.34-8.25-29.47-13.11-38.79-28.19-52.54-37.11-52.54s-24.03,13.75-37.13,52.54c-3.07,9.13-5.82,19.01-8.25,29.45,14.74,1.15,29.95,1.76,45.38,1.76s30.65-.61,45.36-1.74Z"/>
  <path class="st1" d="M470.21,402.52c26.38-3.5,50.43-8.86,70.53-15.75-25.73-27.55-59.16-47.78-96.82-57.23,5.71,9.69,11.29,21.92,16.47,37.21,3.71,11.05,6.99,23.04,9.82,35.77Z"/>
</svg>