<svg xmlns="http://www.w3.org/2000/svg" data-name="Layer 1" viewBox="0 0 674.83 417.38"><path d="M292.27 38.79h-1.63c-1.43.02-2.87.07-4.24.15-2.51.15-6.23.33-8.27.4-7.08-.11-17.41 1.61-23.48 1.65-3.43-1.85-8.68-1.35-11.85-1.37-8.21-.29-15.69.96-23.26 1.39-7.25.65-6.1.41-9.06 1.24-3.55 1.36-7.36.53-4.55 4.41 5.54 1.26 3.29 1.63 2.35 2.61-3.33 1.06-4.66.18-7.17.15-1.17-1-5.3.47-4.21.52.18 2.32-2.51 2.47-2.11.07-2.46.56-3.4.63-8.59-.13-.64.25-1.57 1.19-1.16 1.19 1.24 1.12 4.36 2.03 5.17 2 3.71-1.64 3.18 1.01 3.74 1.03 3.4.04 5.45-3.01 7.14-2.85.42.7-2.51 2.03-1.53 2.33 2.14.42 11.29.62 11.73.26 1.45-.06 6.93.31 7.05-1.64-5.06-.06-15.65 1.27-12.78-1.14 5.29-1.69 9.85.31 14.05.55.26-.77 3.91-1.52 3.97-2.13 1.62-1.93 5.49-1.96 6.74-2.53 2.24-1.43 4.39-1.94 6.2-2.11 3.5-.97 5.66-1.4 9.39-.4 0 .54-1.3.92-3.86 1.13-1.7.32-11.12.37-10.35 3.05 6.95 4.78 6.1.88 14.32 2.75 6.77 1.32-.82 5.71 1.08 8.36-1.26 3.13-2.1 6.88-2.56 8.88 1.2.99-.57 2.64.19 6.26-.48 1.75 2.23 5.1 2.56 6.78 2.9-.21 6.2 3.05 7.91 1.9.77-1.08 1.44-2.07 2.4-3.05 1.27-1.9 2.46-3.56 4.63-4.52.21-1.82 3.08-3.07 3.36-4 2.01-1.43 3.84.67 5.13-.81 2.76.02 5.79-3.49 7.77-4 3.22-1.6 7.92-.62 12.29-2.61 2.8-.77 5.08-2.74 6.53-4.15-2.35-2.83-1.38-2.26 4.38-5.78 1.5-.58 3.02-1.15 4.16-1.65-2.4-2.49.19-3.18.08-3.78-.67-6.07-.37-4.48 8.9-6.94 2.76-.49 2.09-.89-1.79-1.06-4.49.19-9.11-.84-12.57-1.85-1.13-.35-4.46-.56-8.18-.57Zm114.36 2.28c-.55-.01-1.41.2-2.61.78-1.22-.13-3.47 1.81-4.33 1.67-.72.35.7.5 1.02.53 1.98-.57.42-.8 2.04-.31 1.31.07 6.25 1.16 9.31-.68-1.36-.8-3.36-1.02-4.8-1.06.25-.51.06-.91-.65-.93Zm48.33 1.1c-2.42.04-5.17 1.05-4.01 2.45 2.39.36 12.29 2.74 13.34 1.48-2.26-1.73-6.97-1.6-6.23-2.83-.31-.8-1.65-1.12-3.1-1.1Zm-58.43.35c-.19 0-.36.01-.5.05-1.77 1.38-2.47.07-5.32.5-1.39.81 5.92 1.28 7.44 1.34.99-.93-.86-.58.28-1.33-.57-.35-1.32-.55-1.9-.56Zm-38.63.71c-1.35 0-2.49.17-3.13.63-8.13.05-9.56.48-9.48 1.08 1.43 2.59.78 1.87 6.83 4.75 1.63.79 2.26.72 2.48-.28 1.42-3.03 6.36-1.98 4.91-1.13-.91 1.31 4.37.73 5.02-.25-2.08-.75-9.17-1.73-4.49-2.64-.41.67 8.61-.34 6.64-1.45-1.83.02-5.81-.74-8.78-.73Zm108.23 1.95c-.28 0-.5.01-.62.06-.06.86-.24 1.77.03 2.52.61 0 6.31-.59 6.83-.71.96-.63-4.26-1.85-6.24-1.88Zm6.1 2.91c-.44 0-.85.02-1.16.09-1.05.23-1.6 1.09-1.1 1.68-.02.32-3.89 1.2-4.27.9.28-.47-5.04-.06-5.54.42-2.32.74-4.83 1-7.17 1.83-.11 1.23-1.54-.13-1.9.73-.14.76 1.85.41 2.78 1.13-1.83.83-6.06.39-8.24.72 1.54 1.86 6.2 3.38 5.35 3.45-3.04-.09-11.82-3.92-13.04-2.54.71 1.76 3.88.04.25 3.19 1.65 1.07 2.81 2.67 3.64 4.59.65.64 4.8-.16 2.95.36-1.49 1.01-.44 2.09-.47 3.7-.39.77-1.92 1.77-2.54 1.65-2.16-.55-.52-.57-.08-1.53 1.02-1.46 1.14-2.75-.36-3.42-1.24-.67-2.14-2.17-2.45-3.56-2.98-2.34-1.81-3.4-2.12-3.86-.64-.65-4.31-.93-3.2-.99 2.25-.26-2.26-1.37-2.15-.51-.27 1.05-.96 3.38-1.43 3.65-1.88 1.46.54 1.21.55 2.57-.08 1.63 4.98 2.17 4.27 3.34-3.87-.76-8.24-2.52-12.26-2.78-1.2.27-3.96-1.87-4.74-1.11-.15 1.64 2.99 1.66 4.11 2.67.57.63-1.07 1.5-1.54 1-.98-1.27-2.45-.17-4.8-.11-.4.86-3.97.86-3.03-.57-.86-.66-2.8.57-3.8.69-1.38 0-2.37 1.27-3.69 1.33-1.48.17-.58 2.9-4.55 1.78-1.55-.83.03-1.34 1.18-1.65-1.62-1.82-7.16-2.37-5.32-1.1 1.54.46.32 2.28 1.52 2.84 2.08 1.74-1.45 1.89-2.07.73-.77-.12-1.27.92-2.2 1.26-.83.26-1.33.74-2.01 1.28 2.82 3.03.13 1.34-4.19.65-1.47 1.41 1.58 1.41 2.18 2.06.28.71-1.41.61-2.84-.16-1.34-.21-1.81-1.08-2.51-1.76-.66-2.7-1.24-1.83-2.56-3.01-.11-.26.39-.24 2.09.11 5.76 1.18 7.36 1.17 9.07-.03 2.32-1.26-1.79-3.88-2.48-3.44-1.38-.46-3.09-1.09-4.19-1.56-1.9-1.06-4.74-.26-6.34-1.45-1.52-.93-3.56-.37-5.1-.55.63-.17 1.37-.53 1.68-.92-1.02-.16-4.13-1.41-4.96-1.42-2.48.42-2.88-.71-3.89 0-1.06.51-5.21.2-4.96 1.1-.81.68-2.56.97-2.65.9-.66-.62-2.45-.35-2.45.37 0 .4-.03.42-1.02.53-1.61 1.14-5.44 1.23-5.13 2.27.03.74-2.23.17-2.4 1.15.73.5 1.24-.2 2.2-.4 1.49.6-1.64 3.57-2.48 3.81-1.32 1.29-2.64 3.38-2.73 3.42-2.41 2.08-3.54 1.57-3.97 2.04-1.57 1.61-3.55 2.09-5.07 3-.83.5-.85.58-.88 2.6.24 1.72.48 4.28.55 4.3 1.18 1.82 3.65 2.98 5.51 1.8.52-.37 1.46-.94 2.12-1.27.63-.33 1.18-.8 1.18-1.05.11-.67 1.07 1.35 1.08 1.57.31 1.32 1.23 2.69 2.07 3.58.75.73.77 1.35.19 1.95-1.92-.12-2.59.72-2.81-.1.94-1-1.59-1.23-.58-1.92.33-.2.3-1.8-.03-1.8-.57.54-1.55 1.36-2.45 1.38-1.49 0-2.51 2.94-1.41 4.08.58.74-.12.96-.03 1.58.76.79.77 2.37-.77 2.16-1.19-.3-2.09.67-3.17.52-1.3-.19-2.48.54-2.7 1.65-.28 1.47-2.09 3.12-4.16 3.8-1.21.4-1.41.56-1.6 1.46-.28 1.66-2 .93-2.73 2.12-1.25 1.2-3.57-1.91-3.67.04.58 1.86.52 2.02-.61 2.01-1.48-.15-3.1-.52-4.49.15-.82.94-.1 1.99.63 2.03 3.77.22 5.7 5.18 4.55 8.91-.3 1.01-1.07 1.55-1.85 1.31-3.34-.88-6.27.29-9.29-.77-1.16-.39-4.13 1.2-3.72 2.35.14.38.3 1.54.33 2.58-.01 2.4-.62 3.77-1.63 5.34-.22 2.75 1.1 3.11.66 4.96.49 2.05 3.79-1.06 4.93 1.58 1.53 2.56 1.17.84.14 3.32-.94 2.28-1.57 3.02-3.28 3.83-2.86 1.22-2.73 2.55-3.94 4.26-2.07 4.79.7 6.6-6.7 9.06-.73.36-4.78 5.89-4.82 6.69-1.95 3.26-4.29 6.38-5.15 10.09.09 1.05 1.08-.03 1.43 4.51.48 3.98-1.22 8.2-2.89 10.4 2.97 2.09.28 4.5 2.2 6.45 2.36 2.4 2.99 3 4.96 5.1 1 1.08 2.2 4.32 2.34 5.33 2.53 1.82 4.8 3.56 6.45 5.05 3.33 3.02 4.16 3.28 6.67 2.06 1.46-.71 2.18-.87 4.27-.97 2.31-.11 3.56.07 4.85.72 2.18.24 4.01-2.13 6.23-2.24 1.9-.97 3.93-1.38 5.76-1.44 2.12-.23 4.1 1.23 4.22 3.48.98 2.42 4.09 1.14 6.26.9 2.67.28 3.32 4.78 2.26 7.04-.29.71-.17 5.69-1.41 5.01-.88 3.52 6.68 8.69 6.94 11.98 2.03 3.25 1.85 8.72 2.48 10.3.61 1.53.88 2.69.85 3.52-1.94 2.82-2 7.8-4.11 10.47-1.21 5.22 1.81 8.39 3.39 12.27 2.33 4.1 2.18 8.01 3.03 12.65.53 3.96 8.3 12.82 5.59 15.67.41 3.43 1.39 2.66 2.95 4.34.61.69 1.16.69 1.85.08 2.15-1.83 6.87-1.13 9.18-1.18 2.98-.82 6.34-2.22 8.54-4.64 3.15-1.21 3.73-7.54 6.75-8.04 3.17-4.91 1.24-7.69 4.55-9.06 4.31-3.1 1.84-7.91 1.79-11.16.52-1.36 6.7-6.97 7.63-7.35 2.4-.89 4.37-2.9 5.26-5.28.35-2.32-.24-4.74-.22-6.96.28-6.49-1.11-4.22-1.74-6.94.02-3.57-.7-5.08-1.57-7.54.52-5.14 4.59-8 6.5-11.33 1.19-2.33 4.91-6.34 7.19-7.77 1.49-.93 5.84-5.72 5.87-6.44 2.1-4 5.42-7.93 5.51-12.4 1.34-1.56.82-6.53-1.05-4.8-2.49 1.81-8.46 1.53-10.67 2.82-5.73 2.04-4.21-4.33-5.15-5.33-4.24-5.43-7.25-5.14-7.94-8.06-.87-4.94-4.36-5.52-4.52-9.78-1.38-5.78-3.18-7.13-5.35-11.2.17-1.35-4.97-8.69-5.01-9.54.33-1.08 2.01 3.15 3.17 3.38.53-.25.93-.81 1.54-.83 1.01.71 1.93 2.25 2.59 3.5.82.98 2.96 5.54 3.39 5.6 1.14.47 2.63 3.46 2.42 4.69-.75 2.69 4.78 6.17 4.8 7.47.1.93 3.79 5.25 1.02 4.86 1.86 3.52 3.85 3.74 4.35 8.61.76 4.85 4.51.31 6.37.28 6.88-.23 11.36-8.52 17.03-8.54 7.44-4.9 9.8-6.84 10.09-13.08-2.22-3.01-7.7-3.86-7.77-7.89 0-1.72-.33-2.04-.91-.89-6.51 9.7-9.72 4.85-9.31.02-4.91-.22-3.9-2.14-5.92-4.62-3.57-3.92-.17-4.33 1.54-4.81 2.03 1 2.41 4.62 4.74 5.47 4.04 2.09 4.14 3.18 7.63 2.75 1.32-.16 2.03-1.84 2.76-.86.94 2.76 2.22 3.39 4.46 3.65 4.43.6 9.38.97 13.45.37 3.19-1.2 3.74 3.55 5.26 3.63 3.86 2.47 1.81 2.09 2.54 3.32 0 .52 3.8 4.12 4.35 4.1 4.63-1.94 3.01-1.21 4.13 2.73.98 3.22 1.52 6.54 2.95 9.46.95 1.78 1.95 3.7 2.42 5.57.72 3.01 3.61 5.52 3.78 8.64 0 .72 1.49 3 2.2 3.38 2.46.32 1.77-3.04 4.19-2.33 1.17 0-.66-.41-.22-1.88 2.65-.66.52-4.12 1.49-5.51.44-.52.47-2.77.08-4.89-.55-2.95-.41-3.73.69-3.46.41-.07 3.13-2.36 3.14-2.65.66-1.93 3.1-3.13 4.35-4.93.85-1.44 2.42-1.88 3.58-2.93 1.13-1.12.05-2.11.88-3.12 1.69-1.11 2.9-.05 4.52-.57 2.46-.73 2.9-.72 3.45-2.33.64.52 1.39 1.59 1.41 2.09-.72 1.41 4.42 5.27 4.33 5.56-.12 3.28.78.3 1.98 2.98.7 2.1.39 3.2.25 5.41 1.78.74 5.5-.65 5.57-2.48.03-.86 1.85 2.96 2.09 4.35.16 1.15 3.41 8.82 1.21 7.99.4 1.4 3.48 1.93.28 2.01 1.01 1.25 1.06 2.94.74 4.32-.28 1.16.08 3.57.44 3.19 1.19-.62 1.9.9 2.67 1.92.59 3.33 1.57.31 1.6 3.55-.19 1.91 2.19 5.08 2.26 5.94 0 .44.52.97 1.98 1.95.75 2.15 4.06 2.06 4.08 3.44.26.83 2.26-1.03.33-1.14.06.01-.21-1.07-.25-1.52-2.03-2.6-.96-4.87-1.82-7.41-.2-.44-4.17-4.84-4.6-4.74-1.38-1.35-2.72-6.37-3.11-6.87-2.16 3.15-1.28-2.28-.91-3.69.61-1.28.09-4.76 1.32-4.91 1.56.26.27 2.11 1.74 2.1 1.57.33 3.59 1.79 4 3.57 0 .42.99 1.45 1.41 1.45-.56.51 3.66.63 2.78 1.35-.5.3-.39 3.33.14 3.33 1.71-.47 3.85-4.26 4.19-4.48 1.64-.14 2.42-1.67 3.8-2.14 1.43-1.87.49-3.94.28-5.71-.15-1.46-1.93-5.86-3.2-6.27-.63-.2-3.89-3.3-3.89-3.7-.79-1.21-1.87-2.26-1.87-3.49 0-1.84 3.93-5.84 5.65-5.22.53.23 1.84-.04 1.63.56-.09.26-.01.7.15 1.15-1.6.32-2.04 3.22-.78 3.94 2.95 1.04 2.88-1.32 3.89-3.06.31-1.13-.56-1.17-1.44-1.06-.04-.55.06-1.04 1.18-1.24.95-1.11 5-.44 4.68-2.63-.38-1.3 1.42 1.96 1.52.58.92-1.24 4.01-.99 4.49-2.21.46-1.16 4.24-2.96 3.61-4.23.89-.54 2.34-5.14 2.37-5.84.75-3.48 2.26-4.64 1.32-7.59-1.63 1.62-.84-.7-1.87-2.82-.92-1.42-2.26-1.64-3.03-3-1.1-1.94-2.31-3.2-3.58-3.81-1.24-.58-1.35-.72-1.19-1.35.11-2.66 4.48-3.52 4.49-4.58 1.08-.52-5.79-2.14-5.4-1.29-.18 1.37-1.67 1.26-2.04.11-.3-2.14-3.78-1.06-3.86-3 .81-1.35 2.98-1.25 4.13-3.64.67-1.88 3.13-.69 2.48.71-.27.57.26 3.37.3 3.37.14 0 .72-.51 1.32-1.13 1.36-1.4 3.78-1.79 5.54-.79.64.12.52 4 .83 3.57.53-.66 5.65 1.94 4.13 2.21-.47 0-.3.48.5 1.33 1.16 1.27 1.41 1.63 1.24 1.82-.66 1.09.32 1.81.33 2.7 0 .58.11.63 1.24.56 1.35-.29 4.34-1.16 4.41-2.63 0-1.1-1.63-3.97-2.95-5.2-1.14-1.93-3.7-2.58-4.93-4.27-.57-1.58 3.23-2.23 2.18-4.32-1.63-4.98 4-3.2 5.21-3.45.88-.33 2.42-2.11 2.42-2.78 1.63-2.15.82-7.93 1.6-9.92.18-1.08-1.26-4.36-1.9-4.9-1.02-.71-2.09-3.64-1.35-3.64 2.28 1.33 4.32 3.74 5.46 6.09.59 1.41 2.03 2.29 2.54 3.67.84 1.65 1.67 3.11 3.09 4.44-.15-.94-.53-2.03.39-1.85.6.04 1.72 1.33 1.76.86 0-.52-.88-1.63-1.32-1.63-2.7-1.73-2.97-2.41-4.05-5.03.6-1.3 3.71 1.13 3.72.68-.88-.87-2.03-1.53-2.92-2.39-.61-.62-2.18-2.11-3.53-3.32-1.92-1.78-6.65-7.42-7.72-7.13-.39.15-.3.27.41.71 1.32 5.09-.79 1.56-4.24-.22-4.44-.18-11.28.02-9.23-2.92 1.19-1.51 1.63-2.36 1.27-2.48.23-.93 1.84-5.8 2.29-5.96.91-.34 4.85-.39 5.07-.06.08.16.41.29.72.29s.5-.1.41-.22c-.06-.12.88-.18 2.09-.14 2.64.69 1.77-1.09 2.37-.92 2.74-.33 4.43 1.83 4.8 1.83 1.4-.08 8.04-.6 3.91-1.69-1.92-.6-.74-4.47.58-4.6 1.52-1.48 4.88 1.83 5.13 1.72 5.49 1.55 2.37-3.46 2.43-3.48 1.97-.6 1.45 2.3 2.95 2.52.1 1.34-1.48 3.23-1.19 4.96.25 1.18-.86 2.74-1.79 2.76-.62.94-.11.77.69 2.01-.22 1.16 1.21 3.04 4.41 5.8 2.11 2.39.49.75 4.88 4.27 1.34.95 3.65 4.53 4.55 2.79.81-1.76-1.59-3.2.74-4.22.61-.66-1.93-1.49-1.57-2.63 1.73-2.76-2.81-4.85.88-3.99.25-.26-1.02-1.56-1.54-1.57-1.71-.46-2.06-3-3.78-2.63-1.43.57-2.77-4.32-2.51-4.28 2.53-2.16 11.07.65 10.44-.69-.88-4.26 8.48-4.51 8.49-5.02-.89-1.75-6.36-2.85-6.89-4.26 1.31-3.05-.64-2.06-1.52-3.24 3.23.25 7.42 2.53 10.53 2.76 1.69.34 5.44.93 5.59.83-3.27-3.13-1.03-2.33 2.48-1.88-4.26-4.15-11.43-2.75-15.57-4.58-1.49-.72-13.86-3.81-17.91-4.47a51.27 51.27 0 0 0-4.82-.51c-5.49.12-5.48.83-12.13.51-2.23-.07-7.3-.09-7.72-.03-5.33-1.61-7.8-2.91-12.98-2.7-7.56.01-14.31-2.58-21.61-3.28-6.62-1.08-5.86.5-5.76.83 4.24 2.26 1.5 1.25-1.76 1.24.02.83-6.94-.41-6.84 0 1.61 3.57-4.01.11-5.02-.79-2.91-2.52-6.84-2.56-10.53-3.37-2.45-.29-1.92.17-.83 1.4-6.3-.24-5.97-1.16-14.52-1.02-1.88-.66-3.29-1.57-4.08-2.82-.49-2.25-6.2-2.88-7.63-2.89-4.55-.34-6.26-1.6-10.88-1.77Zm-301.17.44c-2.26-.05-11.95 1.89-12.25 2.68.88-.22 7.94 1.91 8.41 2.33 1.1 1.57 4.11.4 4.59.32 1.72-.29 4.31-.59 5.75-.67 3.56.09 8.45-2.37 2.39-2.08 1.05-1.38-.19-1.44-1.23-1.13-2.41.65-1.1 1.85-2.9 1.9-2.05.03-2.02-1.29-4.06-1.52-2.8.08-.39-1.05.14-1.16 1.65-.51-.31-.66-.83-.65Zm252.6.77c-.78.03-1.55.24-2.16.61-1.96 1.03-7.7.16-8.87 1.4-.52.78-3.38.87-3.28 1.6-1.08 2.95-2.02 3.13-3.61 5.97.64 1.78 9.55 3.67 10.14 2.41-.19.51-6.2-1.9-4.08-3.88 1.17-.8 2.04-3.25 3.55-3.58 2.33-1.41 4.34-1.84 6.23-2.21 4.82-.95 5.79-1.56 3.47-2.19-.45-.1-.92-.15-1.39-.13Zm101.26 1.57c-1.15 0-2.06.16-2.07.7 0 .78.96 1.25 4.13 1.98 2.24.18 7.8-.03 8.16-1.18-1.57-1.48-3.47-.8-6.01-1.33-.86.05-2.73-.18-4.21-.17ZM157.8 53.73c-2.63-.01-5.49.74-7.18 1.76-1.81.98-5.56 1.92-6.87 3.33 11.04 1.8 10.82 3.02-2.04 4.54 1.85-1.89-8.75 1.31-7.84-1.17-2.56-2.57-16.02 4.13-16.03 1.49-2.9-2.97-18.1.14-19.58-3.19-7.62.05-19.55.84-26.04 5.88 3.89 3.87-3.07 3.25-3.44 3.33-.93.34-8.84 1.52-7.22 2.2 1.01 3.8 3.57 2.27 6.78 2.33-.24 1.19-6.26 2.44-7.07 2.31-2.63.32-5.58 2.45-7.86 3.03-6.53 6.23 4.98 4.05-1.77 6.79-1.31 1.21 4.41-.69 4.22.45 8.43-2.38-4.96 4.03-9.51 5.63-7.28.94-9.17 1.41-10.82 3.63 1.33.39 8.65-2.69 9.07-1.44 3.63-.65 7.35-3.28 10.82-4 .59-.88 14.75-6.93 14.61-5.35 1.7-.53 8.52-.95 10.05-1.68 3.09.38 3.62.26 6.65.07 4.07-.33 7.51 3.93 5.8 6.25 1.11 2.36-1.61 5.24.85 5.46.86 0 2.6 4.86 1.78 6.26 1.14 3.24-2.35 3.09-2.34 3.26-1.79.23 4.29 5.16 3.26 5.09-.84-.06-.95.08-1.64 2.22-.46 1.43-2.04 4.36-2.73 5.07-3.36 2.87-4.46 7.37-6.79 10.23-.71.77-1.36 4.57-1.14 5.08.4 3.57.88 5.82.96 9.16 5.14 2.91 4.18 5.04 5.11 9.51-.17 1.98 1.05 3.33 1.95 4.69.28.13-.61 3.14.6 5.2 3.13 1.43 1.7 2.63 1.32 4.6 1.79 1.35 3 4.03 3.93 4.56 2.65-.96.2-2.68-.45-5.4-.12-1.26-1.22-5.45-2.17-6.02.1-4.49-.1-2.38-1.77-5-.72-1.2-.14-4.73.94-4.27 2.39.62 1.78 1.64 2.01 3.44.46 4.21-1.09 1.84 1.3 4.36 1.59 2.51 2.93 4.65 2.56 5.87 2.9 3.73 6.08 5.98 6.09 10.72.06 1.97-1.26 2.58-.23 4.21 2.21 2.42 9.2 6.79 11.36 7.09 4.6 2.7 5.27 1.53 8.97 1.1 1.12 0 2.5.89 3.53 2.27 1.72 2.3 2.55 2.95 4.06 3.19 4.65 1.1 9.39 4.57 9.66 7.97 1.67.66 4.39 5.02 4.58 5.03 2.93.65 5.1 3.45 6.4 2.83.62-3.36 2.48-4 5.01-.31 1.74 2.89 1.1 10.17-.88 11.26-1.82 1.04-1.17 3.09-2.74 3.7-2.28.04-2.43 7.49-2.99 7.61.43 2.43.31 2.3.28 3.92-2.06.76-.33 5.74.73 6.29 2.22 1.6 3.71 4.64 4.84 7.15.44 1.4 5.46 9.83 5.42 10.08 1.22 6.67 11.93 7.44 13.8 12.74.44 4.05 1.99 19.95 1.2 23.06 1.09 6.61 2.26 10.4 1.52 17.66-.97 4.16 1.27 9.73 2.18 14.25.94 4.03 1.65 8.24 1.43 11.08 3.97 8.54 9.29 13.86 12.23 16.59 3.3 1.1 4.69 3.35 9.25 3.36 2.96 1.3 3.95-.62 4.68-1.05 3.78-1.25-2-.92-5.5-4.27-1.04-1.96-4.15-3.71-4.3-5.9 2.64-2.13.39-3.02 2.69-5.07 2.68-2.96-3.26-3.52-4.05-4.85 3.96-2.7.06-6.61 4-8.02-1.24-4.25-3.38-.48-3.69-4.63 4.27 2.02 6.67-.71 4.46-3.69-1.23-1.42 6.77.79 8.16-3.2.81-2.68-.42-6.35-2.81-7.72-.74-.2-1.47-1.89-.58-1.09 5.6 1.02 7.75 3.51 9.42-1.45.92-3 4.09-5.8 4.71-8.4.32-1.45 1.16-3.03 1.81-3.39 1.47-1.45-.33-7.91.37-7.98 4.1-2.9 5.86-5.45 10.86-5.61 1.21.14 3.52-2.56 3.39-3.08.76-.69 2.46-8.84 2.47-8.86 1.51-1.61-.38-11.93 1.38-12.01 1.31-3.26 5.38-6.85 6.72-10.04.75-3.3.29-5.66-.94-8.64-3.21-.62-4.24-1.22-5.81-2.73-5.7-2.85-10.42-3.49-14.47-6.71-2.17.52-5.75-1.89-8.2-2.57-2.29-1.27-4.4-5.78-4.49-8.93-.13-1.97-6.61-6.57-10.18-5.59-4.09.31-4.37-2.61-5.76-4.32-.99-1.37-4.8-2.1-4.24-2.92-1.54-1.56.56-4.83-.39-4.49-4.28.95-4.62-.26-7.64 1.52-.54-1.18-7.29-.43-7.33-1.48-1.96-2.31-3.08-4-3.73-3.28-1.01 3.45-3.35 4.27-2.42-.32-1.24-.02-5.83 3.33-7.2 3.02-1.12-.28-2.64 1.97-2.39 3.53-.52.88-2.97 1.92-2.79 2.9-2.35-1.43-3.93-3.58-6.87-2.06-3.89 2.02-5-.44-6.88-4.11.08-1.76 1.33-8.31 1.95-9.33-.02-1.78-4.77-3.3-5.97-2.57-1.62.61-4.16-.05-5.38.1-.27-4.76 6.27-9.59 5.74-12.97-.63-1.15-6.89-.29-7.57 1.13-2.94 7.64-7.53 5.89-11.26 4.99-1.3-.67-3.49-6.64-3.21-8.6 1.55-6.1 3.4-12.55 7.39-14.95 2.13-1.49 7.18-3.33 9.26-1.54 8.52 1.08 5.55-4.66 11.51-1.94 4.13 3.96 5.06-1.7 5.18 4.49-.22.42-.37 1.07-.33 1.43.42 2.83 1.48 5.08 3.24 6.34 3.54-.3 1.66-9.11 1.45-9.99-.96-3.62 1.46-6.85 4.16-8.23 1.28-.97 6.19-4.59 7.68-4.68 4.12-3.81 6.53-7 6.15-9.85-.08-.49-.03-.96.11-1.05.14-.09.26.03.26.27 0 .61.17.55 1.48-.52.64-.52 1.33-1.38 1.53-1.9.33-.85.53-.98 1.92-1.27 1.92-.39 3.47-1.05 2.64-1.12 5.1-.2 3.38-3.02 3.61-3.2 1.1-1.9 2.81-2.96 4.52-3.55 3.02.04 6.02-3.84 8.96-3.17-1.05 1.43-5.08 2.17-3.32 4.03 4.12.62 5.71-3.01 10.31-3.61 1.11-1.21 3.19-1.49 3.34-2.27-1.56-.59.14-1.41-.48-2.05-4.62 2.68-6.28 1.46-8.24-.08 1.27-2.03 3.47-5.23.65-5.2-2.65.89-1.55.17-2.41-.73 2.18-2.07 5.95-1.38 8.07-1.37 7.51.96 8.17-2.73 11.63-2.78 1.53-.2.21.62-.39 1.21-5.42 5.84-8.27 7.48-3.44 7.77 7.02.28 6.48.22 6.05.7-.32 4.25 3.4-.49 2.91-1.82-1.27.17-1.89-1.67-.41-2.45.54-.78-.34-.97-.3-1.59-2.61 1.28-2.39-.73-4.11-1.09 2.07-1.87 1.71-.83 2.56-2.45-2.38-.67.5-1.31 1.07-3.35.21-3.22-2.05-5.46-5.56-5.93 0-4.5-1.93-6.3-1.39-11.95.1.69-2.69 2.3-3.02 2.61-.93.85-3.94 3.15-5.04 2.3-2.16-1.5-1.52-3.75.15-5.3-2.58-1.14-2.68-1.08-4.88-3.54-2.67.32-7.75-1.25-8.13 1.59-5.16 5.73-4.09 4.62-3.75 9 0 .68-1.03 2.82-1.6 3.34-2.3 1.65-4.8 2.53-7.51 3.01 1.08 3.26-4.58 10.26-4.94 7.38-3.79-.94 2.95-6.4 1.14-8.11-4.53.79-6.44-2.91-9.45-3.87-1.78-.9-2.92-.78-4.68-.42-.2 0 .11-1.43.56-2.57-.22-1.18-2.7-.65.81-4.87.1 0 .93-.56 1.83-1.23 3.44-2.36 7.77-3.59 11.11-5.69 2.22-1.38 3.91.39 5.43.35 2.82 1.32.55.75 4.14-.04 2.82-2.14 2.45.98 5.5-.02.26-3.79 3.99-9.4 6.1-10.17.6-2.52 5.5-2.35 3.29.77 4.96-.82 1.08.58 1.65 1.72 5.86-.72 6.56-.11 4.13 1.5 1.08 2.56-11.12 2.6-9.8 4.4 4.79.11 8.1-1.24 8.21 2.36 1.17 1.88 10.05 4.61 9.8 3.3-1.64.36-2.62-2.75-.52-2.37 2.03 1.35 1.68.5 3.32-1.09-3.76-4.3-.79-5.08 2.38-3.42 2.46-.69 4.67-1.99 6.67-3.51-1.67-1.56-5.97-2.64-7.51-4.18 6.47-4.74-8.21-6.22-6.34-8.41 0-.79-.98-1.21-3.17-1.37-3.15.15-5.07.19-8.68-.23-1.88-.73-7.18.9-9.44 2.92-3.53 2.65-2.35 5.1-.05 4.26-6.8 9.66-6.75-1.19-6.99-3.3 1.25-1.34 9.7-3.72 9.29-4.14-1.2-.4-2.43-.24-3.7-.4-.77-.11-4.09.71-4.63 1.18-1.85.87-1.75 2.69-3.43 3.38-1.59.44-3.2 2.29-4.07 2.77-3.83 1.56-6.03 2.82-7.64 4.46-.58.6-.85.65-3.73.7-4.34-.15-5.38-1.14-.71-1.55.96-1.06 4.61-1.73 4.77-2.88 0-.29-1.16-.92-2.54-1.39-1.39-1.04 4.35-5.06 4.75-5.43-.43-.59-6.59.8-6.95 1.17-2.71 3.5-.79 1.28-1.75.2-2.41-.68-5.82.8-7.29-1.77-1.12-1.15-3.03-1.62-5.08-1.63Zm32.09.95c-3.8.52-4.32.18-6.18.79-.17 2.43-2.12.57-3.77 1.41-.84 1.54 1.81 1.39 1.79 2.69 1.72 1.17 4.63.13 6.36-1.51 1.12-.99 2.02-2.17 1.79-3.39Zm113.72 15.07c-2.44.09-6.21 1.47-6.38 1.1-1.35 1.41-2.07 0-3.31-.71-1.62-1.07-2.93.54-4.16 1.48-.15.67 5.36.53 1.46 1.14-1.3.18-1.63.33-1.43.65 2.53.24 4.11-.34 1.52 1.76 0 .28.33.36 1.32.3 2.47.26 4.55 1.24 6.89.45 1.6-.62 7.34-2.01 7.5-3.59-2.27-1.02-1.06-2.55-1.98-2.39-.36-.15-.85-.2-1.42-.18Zm62.5 1.7c.61 0 1.22.09 1.78.19 1.84.53-1.2 2.12-2.44 3.6-1.76 2.12-2.01 3.52-2.11 6.05-.08 2.05 1.38 1.65 2.7 2.61.06.18.83.09 2.12-.26 1.85-.08 3.54-.86 5.13-.98 3.1 0 2.64.41 1.52 1.71 0 .34-1.38.34-4.13-.02-3.67.37-2.22 2.68-4.46 1.2-.82.12-1.61 1.29-1.46 1.84.05 1.94-1.13-.11-1.16 5.04.17 1.4-.3 2.2-1.27 2.2-.12.63-2.18 2.36-2.54.83.5-.81-3.42-.43-4.13.4-1.14.65-4.5 1.38-4.55 0-1.32-1.14-4.67 1.69-4.68.71 2.19-2.23 2.36-.57 2.29-2.87 1.01-1.5.52.23 2.12.23 1.02 0 1.24-.1 1.32-.54 2.19-1.34 3.22-1.79 3.72-1.53.33-.34.99-2.3.85-2.45-1.22 1.59-.58-.72-.41-2.54 1.28-.78 5.63-2.68 2.09-4.32-2.7-1.48-1.45-1.46-1.43-3.38.45-1.37 2.51-3.2 4.08-3.28 1.79-1.13 2.55-3.35 3.28-4.12.56-.23 1.17-.31 1.78-.31Zm-43.43 13.44c-.25 0-.58.22-.91.78-.81 1.59-2.59.37-3.39 1.51-.73 1.65-1.91 1.23-2.45 1.67.06.97-.65 1.59-.94 2.51 2.8.37 1.53.34.55 1.6 1.24.18 2.22 2.46 2.7 2.61 2.51-.92 1.73.04 2.48.87.87 1.48-.12 2.06-1.38 1.9-1.58.04-.15.11-1.74 1.58 3.88.33-3.2 2.33.66 2.59 1.32.07 2.31.66 1.1.66-1.07.59-3.02 1.86-3.69 2.77.76.13 4.09-.54 4.35-.84 1.25-.4 4.02-.78 5.48-.71 1.24.07 3.53-.71 3.53-1.21-2.1-1.24 1.33-1.7.58-3.28-3.06-2.17-1.95.89-2.89-2.94-.48-1.17-1.96-1.4-2.29-2.56-.25-1.05-.96-1.97-1.52-1.98-.71-.66.49-2.33 1.05-2.88.66-.68.19-.99-1.54-.99-.5-.06-2.13.02-1.65-.55 2.73-1.09 2.66-3.11 1.9-3.12Zm-8.62 9.04c-.9-.02-1.74.23-2.24.84-.06 2.22-2.65.85-3.2 1.79.05.97-.28 1.86.41 2.04 1.92.65-2.96 3.37-1.21 3.47.55 1.17 2.92.56 4.33-.17 1.38-.65 2.96-.56 3.31-1.73.11-2.39 1.93-4.55 1.16-5.51-.71-.44-1.66-.72-2.55-.73ZM165.57 109.1c2.68-.04 2.29 2.05 2.02 4.68-1.04.4-1.53-.72-3.39.17-1.83-3.11-5.63-.42-9.32-.73 4.32-3.46 4.78-2.64 8.86-3.87.73-.16 1.33-.24 1.83-.25Zm233.05 3.66c-.56.59-2.13.75-2.34 1.24.61.93.68.84.17 2.01-.19.69.4.63-.94.91.86.23 3.43 2.6 4.86 3.75.83.68 2.07 1.51 2.78 1.84.91.42 1.43.88 1.76 1.59.61 1.19.44 1.67-.66 2.33-.61.35-1.54.52-3.45.58-1.59.16-7.21-1.28-7.8-2-.41-.5-.63-.52-2.67-.34-1.68.15-2.56.4-3.53.96-1.69 1.47-4.74 1.48-6.75.43-.72-.38-1.74-2.53-1.41-2.89.71-1.19 1.81-4.57 2.26-4.79 1.25-.71 1.44-4.17 3.11-4.19.41 0 .69.16.69.41 1.08 1.04 2.83.46 3.69 1-.45.26-1.92 1.3-1.6 1.39 2.67.44 1.74 2.01 2.7 2.13 1.35-.22 2.52-1.32 3.91-1.33 1.73-.27-.13-.83-.66-1.04-.57-.1-1.11-.91-1.41-1.22.64-.68 1.4-1.56 2.31-1.7 1.23-.24 2.45-.71 3.61-.87l1.35-.19Zm25.22.69c1.5-.01 2.26 3.97 1.37 3.63-1.56-.31-3.5-.71-3.44 1.26-.46.51-1.64.07-1.24.81.71.81 2.47 1.62 2.48 2.77 4.12 2.52 2.7 1.62 2.95 3.84 1.28.79.89-.4 1.8-.71 1.14-.01 2.54 2.14 2.67 2.5-1.88 1.11-.92.15-1.93.14-1.22-.15-1.1-.27-1.47.36.48 2.52 2.74 3.91 3.09 5.98.79 3.33.15 2.77-2.84 3.44-1.83-.06-6.39-2.48-6.67-4.13.57-3.2.07-2.78 2.12-4.44-1.31-1.29-2.86-2.44-4-3.65-2.26-2.46-2.62-2.98-2.62-3.8 0-.91-.8-2.03-1.74-2.41 1.87-3.79 7.96-5.37 9.15-5.54.11-.04.21-.06.31-.06Zm-258.03 1.9c-3.17 1.96-4.55 6.73-6.63 8.94-1.34 1.34-2.08 1.55-2.13.59.88-4.66 3.84-9.33 8.77-9.53Zm7.4.22c.39 0 .73.29.93.86.66 1.9-.57 2.98-1.53 1.35-1.76-.99-2.43 3.21-3.56 3.98-1.13-1.13 1.75-4.46-3.01-.95 2.28-3.15 2.75-2.22 1.23-4.9 2.55-.34 4.7-.28 5.93-.34Zm177.82.6c.22 0 .32.05.11.18.89 4.43 7.82 6.3 11.49 9-.45 1.71.83 5.62 1.27 5.65 1.25.3 1.13 1.59.83 2.3 0 2.45 1.92.77 2.48 3.12 1.9.65 2.44.48 2.89 2.3 1.41-2.66-.54-2.92.63-2.76-.1-.85 1.82-2.01 2.95-.5 1.51-1.35-5.92-4.69-4.63-6.72.8.19 2.83 1.73 3-.06-1.44-2.04 4.71-.99 3.69.04-1.54 1.29-1 2.6-.08 3 3.16.09-1.93 3.07 1.87 3.41 1.62.53.16 1.84.25 2.46 2.21-.58 1.45 1.01 1.71 1.4 1.33.55.4-1.81 1.46-1.55 1.28.84 4.28 2.12 4.05-.04-.11-.81 2.12-.1 3.39 1.08.3.27.78.41 1.31.43-.21.05-.41.1-.62.12-.77 0-.58.85.3 1.3 1.38.61 1.53-.28 2.73-.75.14-.62.96-1.56.91-1.85-.24.04-.49.11-.73.2.55-.66 1.01-.72 1.78-.25 1.78-.2.69-.27 1.35 2.59.33.36.55 2.21.33 2.48-.36.4-1.35 3.45-1.68 5.1-.2 2.51-3.39 3.28-4.77 2.22-1.02-.9-4.05-.57-5.26.56-2.55 1.23-5.46-1.69-8.24-1.24-1.94-1.17-4.4-1.55-6.39-2.95-.41-.66-3.03-.05-4.27 1 .28 3.22 1.75 6.14-3.75 4.29-1.13-.81-2.87-1.43-4.02-1.43-3.73-4.03-5.51-2.62-9.26-4.42-3.25.35-5.11-3.46-1.57-3.67.64.05-.37-2.63-.39-2.65 1.2-3.14-.87-2.37-1.02-2.97-.22-.86-1.35-1.03-2.59-.38-2.18-1.09-6.32 1.8-7.72.91-.74-.46-1.52-.42-5.24.2-3.11.52-4.96 1.16-4.96 1.72 0 .16-.19.22-.41.13-1.72-.06-3.25 3.02-5.18 1.5-1.34-.27-3.01.48-4.05-.27-2.22-2.26 1.47-3.04 3.17-3.06 2.57.9 2.74-1.5 4.3-1.84.51-.28 3.2-3.03 2.67-3.48-1.73-1.42 2.15-5.06 2.78-5.16 3.08-1.27 3.37-1.92 3.33-4.03 0-1.35 2.92-1.84 4.6-.77 1.98.91 4.26-1.68 5.98-2.74 4.4-.19 2.8 3.19 2.95 3.82 1.94-.69 3.61 3.28 6.12 3.57 1.63.63 4.55 2.98 5.02 4.27 1.02 2.7-2.88 3.07-4.66 2.94-1.63-.14-2.09 0-2.09.66.83.51 3.64 2.58 4.63 2.83 1.91.07.16-3.43 1.74-2.96 1.34-.24 3.63-3.15 2.31-4.01-1.06-1.05.91-2.02 2.29-.64.41.41.47.4.72-.15-.65-3.13-4.28-2.61-4.44-4.74-3.82.39-4.08-3.32-6.2-4.63-1.36-.9-1.46-3.46-.41-3.85.17-.13.87-.28 1.24-.28Zm241.5.23c-2.37 1.71 2.42 1.56 1.74 4.26-.04 2.92-2.69 1.09-1.27 3.81.17-.52 1.35.37 1.54 1.18.38.66.9.65 1.24.38-.07 2.44 2.77 4.41 1.52 6.4-2.39 4.3-2.74.71-3.47 1.21-.95 1.23 1.89 1.18-.28 2.65-.62.64.38 1.15.06 1.64-.81.25-1.61-.19-2.45 0-.68.35-3.58.02-3.61.63-1.4 1.38-1.94 2.4-2.81 3.78-1.05.83-1.71 1.3-.88 2.19 1.31.88 1.93 1.79 2.45 3.61.53.7 1.36 1.09 1.87.55.9-1.58.61-2.68.44-4.56-.16-1.41 3.02 2.25 2.4.55 0-3.09 2.41.56 2.15-2.73.12-1.49 1.39 1.09 2.2 1.28 1.17-1.35 1.34-1.95 3.06-2.66 2.05.18.75-2.33 1.68-.61 1.62 1.71.26-2.08 1.87-.47 1.31.87 1.44-1.84.99-2.36-.98-1.36-.38-2.96-1.38-4.13-1-1.18-.14-1 .55-1.36-.24-3.47-3.23-4.77-4.13-7.1-.32-.29-.59-.45-.82-.54.36 0 .69.04.9.12 4.59 2.01.13-1.28 3.31-1.37.94 0 1.85-.54 1.85-1.05-1.27-.71-.97-1.77 0-2.46-.71-.87-1.19 0-1.27.51-.36.17-2.13.29-3.5-.21-2.31-.02-3.82-2.89-5.95-3.12Zm-412.58 1.69c.98 0 .59.77-.66 1.33-1.14-.02-7.55 1.02-4.64-.41 1.54-.27 4.2-.9 5.31-.91Zm163.53 2.32c-.48.63-1.48.79-1.82 1.48-.26 1.57 1.53 2.54.5 3.23-.66.57-2.2-.43-1.1 1.37.65 1.1-.58 2.91.33 3.65.99.67.99-.39 1.79-.41.55.21.72-.28.8-2.65.06-1.57 0-1.94-.44-2.26-.73-1.01.1-2.12.11-3.41 0-.72-.05-1.01-.17-1.01Zm-169.41.46c-1.45 1.02-6.82 3.9-8.53 2.99-.41-.45 1.32-.92 2.69-1.61 2.96-.88 3.15-.82 5.37-1.29.24-.06.39-.09.47-.09Zm422.46 3.14c-.26.18-.4.55-.5.92-.09-.17-.25-.33-.5-.44-.46-.19.2-.4 1-.48Zm-224.57 14.04c-.43.02-.71.14-.74.42.07 1.17 6.26 1.71 5.65.57-1.05-.23-3.63-1.05-4.91-.99Zm201.09 24.69c-.58-.04-1.32.69-1.78 1.93-1.16 3.57.33 3.54 1.13 5.76.64.85.83-1.36.96-1.73.22-.63.44-2.11.5-3.29.18-1.83-.23-2.63-.81-2.67Zm-417.56 6.73c-.49 0-.93.04-1.26.14-.45.13-1.41.38-2.12.55-1.61.34-4.18 2.53-2.87 2.8 4.82-1.25 4.41-.74 7.89-.61 3.2.88 5.65 2.69 5.95 4.86-.18.47 5.63.34 6.85-.15l.82-.33c-1.12-.58-3.6-2.42-4.19-2.6-1.17-.35-2.81-1.74-2.81-2.38 0-.18-.08-.25-.17-.15-2.12.27-4.81-2.09-8.07-2.13ZM1.82 172.02c-.48.07-1.01.3-.71.67.89.99 1.37-.69.71-.67Zm-1.56.5c-.35.22-.28.53-.16.83.32-.29.29-.6.16-.83Zm4.27.73c-.33.03-.71.4-.58.77.24.62 1.02.55 1.02-.1.05-.53-.18-.7-.44-.68Zm1.67 1.29c-.3 0-.54.03-.63.13.31.97 1.63 1.72 2.31 1.14.59-.76-.79-1.24-1.68-1.27Zm2.22 2.26c-1.2.35-1.19 4.29-.27 2.91.66-.54 1.3-.75 2.1-1.09-.48-.82-1.06-1.71-1.83-1.82Zm164.88.35c-.4 0-.71.03-.88.11-.99.45-1.05.88-.13.88 2.81 4.16-2.44 1.38-3.06 2.51.67 2.51 4.58.5 5.58 1.71l.57.77c1.58-2.48 3.29-2.12 5.92-1.4 1.58-2.02-1.75-2.91-2.14-3.41-.66-.55-4.12-1.16-5.87-1.16Zm401.89 1.38c-.68.02-1.29.27-1.49.89-.4.79.71 5.73-.03 4.75-.88-1.09-.99-.19-.28 2.03.77 1.39.62 2.46.99 3.55-.03.96 1.07 1.82 1.65 2.95.61 1.16 1.02 1.38 1.46.77.47-.61.25-1.78-.44-2.38 1.49-1.42 4.12 2.14 4.13 2.61 0 .76.08 1.02.25.77.81-.55 2.28 1.18 1.52-.34-.5-.85.07-1.21.22-1.95-.5-1.08-.27-.84.17-1.57.3-.18.33-.37.08-.83-.39-.68-.85-.77-.85-.16-.81.7-2.62-.98-3.69-.85-1.61.1-1.05-.9.11-.88 0-.28-.96-.88-1.43-.89-.95-.3-.76-2.19.05-2.21 1.58-1.75-.03-3.33-.05-4.99.1-.68-1.24-1.3-2.37-1.27Zm-389.54 2.13c-.76.01-1.42.25-1.49.83.34 1.17 4.76.78 3.51-.33-.42-.31-1.26-.52-2.02-.5Zm-23.15.09c-1.14-.02-1.96.31-.77 1.16 1.71 1.43 1.77.37 3.1.36 1.12-.87-.86-1.49-2.33-1.52Zm421.95 13.97c-.56-.03-1.03.13-1.04.53 2.48 4.83-.17 3.21 2.95 6.41.46 1.88-.17 1.69-1.3 1.02-.24.95-.72 2.91-1.65 1.87-.76-.77-1.5-.33-1.93.47-1.43.99-2.17 1.41-1.98 3.12 1.41-.08 2.19-.46 2.4-.76 1.01.08.94-1.14 1.49-.84 1.03 1.15.17 2.86 1.27 3.76 1.19.49 2.72 2.34 2.78 1.46.62-1.63-.47-3.28.17-3.44.71.12.53.9.91 1.41 1.59.39.24-6.35-.47-7.15-.17.09-.19-.27-.05-.88-1.42-2.04-1.73-1.69-1.82-5.39.38-.94-.78-1.53-1.72-1.58Zm-5.81 1.72c-.08.62.32 1.58.28 2.35 2.87 1.77.38 1.84 1.24 3.33.31.5.87.56 1.16.96.53-1.58 1.87-.71 3.03-1.13.34-2.07-.9-3.78-2.56-3.42-.84-.26.01-1.37-.83-1.38-.87-.04-1.51-.58-2.31-.72Zm-4.6 1.07c-1.03.54-.76 1.79-1.43 2.75-.12 1.81-2.08 2.13-2.95 3.75-.41.45-.15 1.83.28 1.09 1.31-.96 3.01-4.58 4.49-4.94.74-.14.85-.69.17-.87-.81-.55-.43-1.2-.06-1.5-.08 0-.22-.07-.49-.28Zm.49.28c.13.01.06-.14.06-.05-.02.01-.04.03-.06.05Zm-83.2 3.58c-.95 1.32-.13 1.4-.8 1.83.79 1.2.23 3.02.44 4.3.35 1.94.62 4 2.73 2.96 1.43-.72 1.79-1.19 1.79-2.36s-1.1-3.75-1.82-4.35c-1.14-1.06-1.17-2.23-2.34-2.38Zm78.47 6.18c-.51.03-1.09 1.1-1.89 2.01-1.86 3.26-3.65 3.76-6.01 6.61-4.07.78-5.46 5.92-7.33 4.02-.22-.61-1.02-.12-1.54.96-.47.92-.44 1.92 0 4.3 1.83 3.96 1.48 1.08 2.12 5.37 6.27.75 2.03 3.48 9.23 3.28.02-.02 3.81-.07 3.83-.13.56-2.13.26-4.87 1.6-6.17 2.68-1.43.26-4.93 2.92-4.81 1.96-.4-4.21-7.33-.25-8.37 2.28-2.93-1.62-4.08-1.54-4.71-.39-1.8-.75-2.41-1.14-2.38Zm-45.7 3.73c-.38.02-.56.34-.36 1.28 2.09 3.43 5.01 5.42 7.52 8.5-.14.57.94 3.37 1.38 3.51.77.26 2.81 3.92 2.98 5.31 1.2 2.55 3.46 4.88 5.32 6.73 2.43 2.4 2.48 2.43 3.33 2.13 3.44-.47.14 1.95.11 2.12.52.84 2.47.16 2.51 1.36 2.05 1.58 5.95.88 7.88 1.81.95.75 5.95.76 6.31 1.09 1.69.24 4.45.53 4.68.49 1.14.57 2.3 1.04 3.5 1.03 2.85-1.8 8.42-.21 11.11-.89 1.42-.9 4.71-.16 5.73-1.02.41-.42-.3-.51-2.84-.35-3 .71-7.71.13-9.2.6 0-.9-1.78-.21-2.42-.77-3.55 1.68-7.3-.44-9.73-1.12-3.94-.5 1.38-1.19 1.32-1.63-.08-.18-.88-.26-2.07-.22-6.5-1.72-5.12.03-6.37-.1-2.7.84-4.2-2.52-6.61-2.14-3.13 1.25-1.97-2.1-1.85-3.8.14-2.81.33-3.37.99-3.01 3.2.43-.09-1.57-.41-3.12-2.01-.72-2.09.15-.99 1.17-1.45.61-3.14-2.59-4.27-3.42-.99-.82 1-2 .03-2.9-.18-1.52-1.52-1.12-2.37-2.38-.51-.03-2.01-1.71-2.07-1.72-2.5-.78-4.57-2.82-6.15-4.38-1.45-1.15-1.84-3.16-3.89-3.17-.95.04-2.39-1.02-3.12-.98Zm62.69 9.36h-.06c-2.54 1.93-3.8 2.94-7.47 1.33-1.22-1.14-1.45.45-2.2.68-2.32.4-2.07 8.2-3.61 8.41-.87 3 1.26 1.64 1.35 3.28.17 1.31-.49 2.54-.39 3.81.97.75 2.25-.03 2.29-.96.06-4.31.22-5.59.72-5.74.74-.23.91.07.52 1.05 2.61 3.6 2.07 4.58 3 5.61 1.42.98 1.75-1.74 1.76-2.83-.74-.81-3.26-5.58-2.87-6.04.65-.56 3.55-2.13 3.56-2.32 0-.74-.69-.99-1.54-.54-1.99.73-4.69 3.81-5.51-1.2.28-1.4.52-1.47 4.02-1.23 2.67-.02 7.85.33 6.72-2.91-.1-.25-.17-.39-.3-.4Zm15.76 4.91c-1.99 1.84-3.99.96-4.55 1.27.74 1.51 4.55 3.59 5.59 3.53 2.41 1.75-2.44 1.02-2.56 1.31-.29.8 4.2 4.4 3.39 3.04-.55-1.03.89-.6 1.16-.47.55.26 1.24.68 1.52.91.28.24.88.47 1.32.52 9.61 1.9 8.22 5.42 3.91 9.14 0 .4 2.48.39 2.78-.02 3.11-1.36 2.8 2.23 5.65 2.21 3.9.04 1.91 0 2.54 1.45.62-1.26 2.9-6.18 4.3-5.02 1.02.47 3.18 1.17 3.2 2.51 1.51 4.64 8.51 3.82 8.76 3.66-2.93-1.73-4.13-4.46-6.06-6.41-2.81-3.05.8-1.84.88-2.69-.34-1.39-1.6-1.34-2.42-2.05-2.49-.81-.84-3.31-1.57-2.67-1.11-2.19-11.79-4.97-14.74-6.53-2.99-2.18-2.99.71-4.52.73-1.43.06-1.53 2.71-3.09 2.76-.49.12-3.03-2.34-1.74-3.03.64-2.16-1.9-3.73-3.75-4.13Zm19.67 24.8c-1.8.66-3.26 6.98-3.42 8.57-.18 1.45-1.65 7.89-3.89 7.97-3.82-3-6.33-4.26-8.87-6.69 2.86-2.71 2.19-2.65 3.44-4.88-3.71-4.34-8.37-2.59-12.04-1.37-2.27 1.27-3.82 6.1-4.85 6.16-4.37-2.8-6.62-2.64-8.27.38-6.09 2.53-4.05 2.59-9.29 10.09-3.48 3.16-12.86 2.6-15.38 7.02-1.16-1.83-1.51 2.14-2.59 3.84-1.31 9.08-1.67.53-.83 9.54.47 2.87.93 13.8-1.82 13.95-3.55 2.37 5.31 4.89 5.54 3.03 3.5-2.03 7.15-2.16 10.97-1.96 3.79-4.03 10.17-5.26 15.16-5.64 3.11-1.44 7.89 4.23 7.41 6.61-.9 1.86 5.78 1.49 6.7 3.78.29 1.7-1.43 4.24 2.23 5.68 3.17 1.32 6.46-.63 7.69 1.68 1.91-1.81 9.73-2.64 9.92-4.82 2.61-3.37 5.85-8.43 9.45-10.41.97-.78 3.45-3.42 3.5-4.34 2.25-6.03 5.06-10.65 5.21-14.44-.03-.39-.05-.42-.17-.1-1.14 1.94-3.95-3.29-3.78-4.58-3.31-2.46-.95-7.76-5.57-8.47-3.11-.43-.77-4.56-1.9-6.24-1.01-4.76-3.14-6.51-3.11-6.9-.64-4.89-.21-3.76-1.24-7.35a.31.31 0 0 0-.22-.09Zm-195.62 3.02h-.04c-1.28 3.16-3.55 5.11-4.38 6.73-1.13 1.26-4.2 3.2-5.7 3.21-1.01.3-.62 1.44-1.16 2.3-1.11 4.56 1.57 5.62-1.49 9.85-1.23 1.17-.92 9.78 1.52 9.9 1.37 1 2.64-.21 3.83-.28 2.24-.49 3-5.56 3.86-7.47.89-3.48 2.84-6.51 3.42-10.07.28-5.51 5.05-6.07.19-14.13-.01-.02-.03-.03-.04-.04Zm241.9 53.49c-.28 0-.52.14-.52.3.4 1.2.13 6.59-.33 7.5-1.29 2.49-2.87 2.71-4.69 4.13 1.11.77 2.91 2.86.28 3.23-1.68.48-1.61-2.66-6.01.66-2.54 2.4-6.29 4.52-8.68 5.54-3.46 1.35-7.02 3.29-9.84 5.18-1.07.66-1.05 1.57.05 1.57 2.25.51.95 2.09 5.46.03 2.05-.91 3.73-2.4 4.99-3.58 1.18-1.07 2.45-1.68 4.16-1.93 1.71-1.79 5.11-3.32 7.19-5.51 2.23-1.06 2.01.91 4.74-1.27 1.57-.53 4.47-5.2 5.98-4.41 1.61-.43 5.85-5.37 1.93-3.44-1.59 1.24-2.89-.72-2.09-1.79 1.16-2.4-2.16.14-1.52-1.18 1.02-1.82.47-3.58-1.1-5.02Zm-62.92 14.15c-.21.06-.79.91-.82.95-.63 1.25-2.4 6.07-.85 6.73 3.12.6 6.09-3.61 7.19-5.32.83-1.35.5-1.65-1.35-1.13-1.27.53-4.13.44-4.11-.96.04-.21 0-.28-.06-.26Zm-368.85 51.58c-4.72.91-7.59 2.58-9.04 2.07-.46 2.02-1.44-.17-2.27 1.08-.28 1.47 2.28.61-.34 3.33-2.34 3.18-1.1.96-2.96 1.16-1.3.35-1.4 2.41-.19 2.43 3.26-.16 2.5 2.71 2.48 3.86-1.66-.75-3.33-2.6-5.17-1.63.75 3-3.84.46-4.73 2.01 1.13 1.43 1.27 1 .48 2.12 8.87.95.34 1.77 4.93 2.32 4.63.05 2.07 2.34 2.2 2.01-.4-1.43-8.86-1.98-8.89-1.49-2.07 3.64-8.45.85-11.02.72-1.36.33-3.75-1.32-4.87-.52-1.37.38-3.07-.04-4.24-.05-4.1-.23-6.88-1.35-9.77-1.38-2.17-.16-3.99.21-5.93.94l1.02.85c1.83 1.53 2.61 1.55 4.68 2.92 1.01.98 4.27 1.64-.12 1.24-2.5 1.58-11.46-4.54-12.85-3.03 2.97 1.12 4.59 1.97 2.67 2.09-9.09.77-17.95-2.15-27.41-2.34.33 3.24-4.87 2.14-9.52 2.78-1.1.43-3.41.36-3.25.85-1.89 1.88-4.84-.49-7.98 1.05-3.47 2.67-2.34 2.68-7.41 2.45-4.03 1.02-4.61.78-11.84 3.11 7.58 3.8 19.58 8.16 33.17 12.68l3.72 1.13h202l202 .03c12.8-3.42 25.54-8.46 37.2-13.23 1.52-.63 5.26-1.6-2.2-1.68-4.17.8-14.39-2.89-17.69-1.68-3.27-.63-8.05 1.44-8.76.61-.28-.47 1.27-1.71 3.33-2.73 5.5-.81 10.78-4.6 15.82-4.6 1.53.02 8.4-3.09 8.96-3.78.37-.68-4.78-2.17-5.92-2.21-2.54-.19-4.11-.63-5.79-2.07-3.9-.56-4.21-1.72-4.44-1.93-1.81-.37-5.18-.48-7.36-.39-4.33-3.16-10.17-3.92-14.96-4.19-3.23-.22 1.19-2.88-.96-2.92-.41 0-1.63 1.1-1.98 1.82-2 1.54-5.07.15-7.77.88-8.35.09-8.54.04-16.01 1.13-3.33.36-6.81.07-8.74-1.71-4.81 1.45-12 .08-16.09.08-4.86-.48-4.94-2.45-6.31-3.75-2.92.71-5.42 2.24-8.74 4.63-2.05.3-9.06 1.13-9.2.03-1.31-2.59-9.38.53-12.13 1.79-4.26 2.08-8.98 3.17-13.17 4.69-2.18.5-6.52-2.75-6.28-3.34-4.03-.96-11.38-.47-16.73-1.63-3.83-.67-1.61-2.85-6.89-2.62-9.07 2.19-14.6 4.85-22.96 5.98-3.39 1.07-4.11 1.54-7.77 0-2.07-.2-4.46-.06-6.5.58-5.53 2.19-14.24 2.84-19.07 1.6-5.89-2.1-14.03.27-16.84.36-.84.52-12.35-.52-12.59-.33-.52.52-6.06 1.13-11.02 1.21-3.83.7-6.3 2.07-9.07 3.61-3.97 1.82-4.28-.67-6.26 2.48-1.89 1.96-3.4 1.03-5.87 1.93 1.25 1.39.74 1.58-2.56 2.2-2.77 1.08-5.61 1.93-8.4 3.28-1.13.63-1.43.69-3.94.55-4.08-.97-8.18.29-12.03-.04.4-.28-3.74-1.15-6-1.45-4.61-.71-8.69-1.87-13.37-2.65-4.71-.77-8.05-1.93-7.14-2.54.21-.46.53-2.8.36-2.81-1.97-1.98-6.77-3.99-6.86-7.36.04-.89 1.26-.58 1.15-1.32-1.55-1.7-1.97-1.59-3.31-3.47-1.39-2.99 2.79-3.78 3.38-4.82-1.99-3.25 6.61-1.19-.02-3Z" style="fill:#ecedee"/></svg>