<svg xmlns="http://www.w3.org/2000/svg" id="Layer_1" data-name="Layer 1" viewBox="0 0 19.19 264.7"><defs><style>.cls-2{fill:#ecedee}</style></defs><path d="M0 2.53h18.76v2H0zM0 64.52h18.76v2H0zM0 77h18.76v2H0zM0 83.29h18.76v2H0zM0 12.41h18.76v2H0zM0 15.58h18.76v2H0zM0 18.76h18.76v2H0zM0 33.14h18.76v2H0zM0 39.09h18.76v11.99H0zM0 107.41h18.76v11.99H0zM18.76 264.7H0v-2h18.76zM18.76 202.7H0v-2h18.76zM18.76 190.23H0v-2h18.76zM18.76 254.82H0v-2h18.76zM18.76 251.64H0v-2h18.76zM18.76 248.47H0v-2h18.76zM18.76 183.94H0v-2h18.76zM18.76 142.33H0v-2h18.76zM18.76 234.09H0v-2h18.76zM18.76 228.13H0v-11.99h18.76zM18.76 159.81H0v-11.99h18.76z" class="cls-2"/></svg>
